<svg width="130" height="64" viewBox="0 0 130 64" fill="none" xmlns="http://www.w3.org/2000/svg">
<path d="M107.367 2.0939V18.7035C107.367 19.5144 106.71 20.1718 105.899 20.1718H89.2891C88.9545 20.1718 88.6833 19.9006 88.6833 19.566C88.6833 9.58184 96.7771 1.48807 106.761 1.48807C107.096 1.48807 107.367 1.75931 107.367 2.0939Z" fill="black" stroke="black"/>
<path d="M128.507 20.1718H112.198C111.387 20.1718 110.729 19.5144 110.729 18.7035V2.39405C110.729 1.89369 111.135 1.48807 111.635 1.48807C121.454 1.48807 129.413 9.44745 129.413 19.2659C129.413 19.7662 129.007 20.1718 128.507 20.1718Z" fill="black" stroke="black"/>
<path d="M112.198 44.7924H128.422C128.969 44.7924 129.413 45.2361 129.413 45.7836C129.413 55.5549 121.492 63.4761 111.72 63.4761C111.173 63.4761 110.729 63.0324 110.729 62.4849V46.2607C110.729 45.4498 111.387 44.7924 112.198 44.7924Z" fill="black" stroke="black"/>
<path d="M90.1517 23.9276H105.899C106.71 23.9276 107.367 24.585 107.367 25.3959V62.5617C107.367 63.0733 106.952 63.4881 106.441 63.4881C96.6336 63.4881 88.6833 55.5378 88.6833 45.7306V25.3959C88.6833 24.585 89.3407 23.9276 90.1517 23.9276Z" fill="black" stroke="black"/>
<path d="M41.2296 2.10646V18.7035C41.2296 19.5144 40.5722 20.1718 39.7612 20.1718H23.1642C22.8227 20.1718 22.5458 19.895 22.5458 19.5534C22.5458 9.57621 30.634 1.48807 40.6112 1.48807C40.9527 1.48807 41.2296 1.76493 41.2296 2.10646Z" fill="black" stroke="black"/>
<rect x="44.5916" y="14.6106" width="18.6838" height="5.56123" rx="1.46838" fill="black" stroke="black"/>
<path d="M84.6768 20.1718H68.1059C67.2949 20.1718 66.6375 19.5144 66.6375 18.7035V2.13247C66.6375 1.77658 66.926 1.48807 67.2819 1.48807C77.2448 1.48807 85.3213 9.56457 85.3213 19.5274C85.3213 19.8833 85.0327 20.1718 84.6768 20.1718Z" fill="black" stroke="black"/>
<rect x="22.5458" y="23.9276" width="18.6838" height="39.5605" rx="1.46838" fill="black" stroke="black"/>
<rect x="44.5916" y="23.9276" width="18.6838" height="18.6838" rx="1.46838" fill="black" stroke="black"/>
<rect x="66.6375" y="23.9276" width="18.6838" height="39.5605" rx="1.46838" fill="black" stroke="black"/>
<rect x="0.5" y="1.48807" width="18.6838" height="18.6838" rx="9.34189" fill="black" stroke="black"/>
<rect x="0.5" y="23.9276" width="18.6838" height="39.5605" rx="1.46838" fill="black" stroke="black"/>
</svg>
